<svg xmlns="http://www.w3.org/2000/svg" width="124" height="64" fill="none"><path fill="#48D3CF" fill-rule="evenodd" d="M17.427 20h-2.713a2.777 2.777 0 0 0-1.83.67A2.575 2.575 0 0 0 12 22.348v13.304c0 .07.029.136.08.185.05.049.12.076.191.076h2.985c.345.002.687-.066 1.002-.2a2.44 2.44 0 0 0 .829-.577c.23-.246.404-.537.51-.853.105-.315.14-.649.102-.979V20h-.272ZM71.7 31.741a2.657 2.657 0 0 0-.916-.914 2.79 2.79 0 0 0-1.255-.39h-8.413c-.342.037-.69.003-1.018-.098a2.467 2.467 0 0 1-.887-.49 2.355 2.355 0 0 1-.6-.797 2.27 2.27 0 0 1-.208-.963h1.085v-3.13a2.553 2.553 0 0 0-.696-1.759 2.753 2.753 0 0 0-1.746-.85H39.678v2.87c.068.645.383 1.243.885 1.677a2.777 2.777 0 0 0 1.829.67h14.111a2.27 2.27 0 0 1-.208.963c-.14.303-.344.575-.6.797a2.468 2.468 0 0 1-.887.49 2.536 2.536 0 0 1-1.019.098H32.08v-3.391H22.04c-.432 0-.846.165-1.151.458a1.535 1.535 0 0 0-.477 1.107v7.304c0 .139.057.271.159.37.102.097.24.152.384.152h9.226a2.575 2.575 0 0 1-.884 1.678 2.777 2.777 0 0 1-1.83.67H17.97c-.272 0-.272 0-.272.26v2.87c.119.625.45 1.195.94 1.62a3.046 3.046 0 0 0 1.774.728h7.056a4.454 4.454 0 0 0 2.814-.934 4.148 4.148 0 0 0 1.527-2.457c.242-1.554.333-3.126.272-4.696h21.71c1.899 0 2.713-1.826 2.985-2.348 0-.138.057-.27.158-.369a.554.554 0 0 1 .384-.152h.272c.27 0 .27.26.542.521s1.086 2.348 2.985 2.348h10.855v-2.609a1.768 1.768 0 0 0-.271-1.304Z" clip-rule="evenodd"/><path fill="#4C40B6" d="M68.715 28.089c1.649 0 2.985-1.285 2.985-2.87 0-1.585-1.336-2.87-2.985-2.87-1.648 0-2.985 1.285-2.985 2.87 0 1.585 1.337 2.87 2.985 2.87ZM56.777 44c1.648 0 2.985-1.285 2.985-2.87 0-1.585-1.337-2.87-2.985-2.87-1.649 0-2.985 1.285-2.985 2.87 0 1.585 1.336 2.87 2.985 2.87Z"/><path fill="url(#a)" d="M107.334 40.57s-3.246 1.466-10.754.55c-.304-.091-.507.092-.608.367l-.913 5.498a.517.517 0 0 0 .14.36c.094.1.224.168.367.19 2.13.275 10.652 1.557 13.797-1.833.194-.248.332-.528.406-.825l.304-2.29-2.739-2.017Z"/><path fill="url(#b)" d="M108.754 32.597s-3.348 1.466-10.855.55c-.305-.092-.508.091-.508.366l-.913 5.498c0 .275.102.458.406.458 2.232.275 10.652 1.558 13.797-1.74.218-.236.358-.522.406-.825l.304-2.383-2.637-1.924Z"/><path fill="#48D3CF" d="m111.087 36.721.913-6.323v-.458c-1.927-5.223-9.13-6.048-16.536-8.43-3.661-1.12-7.016-2.932-9.84-5.315-.305-.367-.812-.183-.914.275L84 21.785c0 .183 0 .275.102.366 1.538 1.648 3.438 2.99 5.58 3.94 8.724 3.94 20.391 4.766 21.405 10.63Z"/><path fill="#48D3CF" d="M94.146 29.482a35.725 35.725 0 0 1-5.986-2.474.559.559 0 0 0-.491-.069.51.51 0 0 0-.21.134.44.44 0 0 0-.11.21l-1.015 5.315a.59.59 0 0 0 .075.31.665.665 0 0 0 .23.24l1.724.824c8.725 3.94 20.29 4.765 21.406 10.722l.913-6.323a1.414 1.414 0 0 0-.102-.642c-2.029-5.131-9.13-5.956-16.434-8.247Z"/><defs><linearGradient id="a" x1="95.099" x2="110.063" y1="44.291" y2="44.291" gradientUnits="userSpaceOnUse"><stop stop-color="#018FDC"/><stop offset="1" stop-color="#3C27AD"/></linearGradient><linearGradient id="b" x1="96.458" x2="111.422" y1="36.29" y2="36.29" gradientUnits="userSpaceOnUse"><stop stop-color="#018FDC"/><stop offset="1" stop-color="#3C27AD"/></linearGradient></defs></svg>